HIERARCHY
ROOT Bip001_Pelvis
{
  OFFSET 2.62766 95.5349 -9.95198
  CHANNELS 6 Xposition Yposition Zposition Zrotation Xrotation Yrotation
  JOINT Bip001_Spine
  {
    OFFSET 1.44608e-005 10.4157 -0.0118244
    CHANNELS 3 Zrotation Xrotation Yrotation
    JOINT Bip001_L_Thigh
    {
      OFFSET 11.2582 -10.4157 0.0118432
      CHANNELS 3 Zrotation Xrotation Yrotation
      JOINT Bip001_L_Calf
      {
        OFFSET -0.720717 -44.8687 0.366937
        CHANNELS 3 Zrotation Xrotation Yrotation
        JOINT Bip001_L_Foot
        {
          OFFSET -0.664439 -41.3745 -3.62995
          CHANNELS 3 Zrotation Xrotation Yrotation
          JOINT Bip001_L_Toe0
          {
            OFFSET 0.0541047 -10.4146 13.4033
            CHANNELS 3 Zrotation Xrotation Yrotation
            End Site
            {
              OFFSET -1.04503e-005 0 7.70137
            }
          }
        }
      }
    }
    JOINT Bip001_R_Thigh
    {
      OFFSET -11.2582 -10.4156 0.0118122
      CHANNELS 3 Zrotation Xrotation Yrotation
      JOINT Bip001_R_Calf
      {
        OFFSET 0.72059 -44.8687 0.36676
        CHANNELS 3 Zrotation Xrotation Yrotation
        JOINT Bip001_R_Foot
        {
          OFFSET 0.664321 -41.3745 -3.62979
          CHANNELS 3 Zrotation Xrotation Yrotation
          JOINT Bip001_R_Toe0
          {
            OFFSET -0.05417 -10.4146 13.4033
            CHANNELS 3 Zrotation Xrotation Yrotation
            End Site
            {
              OFFSET -1.04873e-005 0 7.70137
            }
          }
        }
      }
    }
    JOINT Bip001_Spine1
    {
      OFFSET 1.90638e-005 14.8539 1.10727
      CHANNELS 3 Zrotation Xrotation Yrotation
      JOINT Bip001_Spine2
      {
        OFFSET 2.28934e-005 14.7848 -1.7233
        CHANNELS 3 Zrotation Xrotation Yrotation
        JOINT Bip001_Neck
        {
          OFFSET 2.24514e-005 15.6905 -0.498826
          CHANNELS 3 Zrotation Xrotation Yrotation
          JOINT Bip001_L_Clavicle
          {
            OFFSET 6.17691 -0.000591152 0.00852867
            CHANNELS 3 Zrotation Xrotation Yrotation
            JOINT Bip001_L_UpperArm
            {
              OFFSET 11.773 -0.0611878 0.00197697
              CHANNELS 3 Zrotation Xrotation Yrotation
              JOINT Bip001_L_Forearm
              {
                OFFSET 26.4515 0.0817566 -2.1958
                CHANNELS 3 Zrotation Xrotation Yrotation
                JOINT Bip001_L_Hand
                {
                  OFFSET 32.8677 0.156743 1.67112
                  CHANNELS 3 Zrotation Xrotation Yrotation
                  JOINT Bip001_L_Finger0
                  {
                    OFFSET 6.16268 -2.25225 6.01675
                    CHANNELS 3 Zrotation Xrotation Yrotation
                    End Site
                    {
                      OFFSET 4.30499 -1.46662 0.618149
                    }
                  }
                  JOINT Bip001_L_Finger1
                  {
                    OFFSET 11.2958 -0.718372 -0.201963
                    CHANNELS 3 Zrotation Xrotation Yrotation
                    End Site
                    {
                      OFFSET 6.31953 -0.405162 -0.0802303
                    }
                  }
                }
              }
            }
          }
          JOINT Bip001_R_Clavicle
          {
            OFFSET -6.17691 -0.000574027 0.00851164
            CHANNELS 3 Zrotation Xrotation Yrotation
            JOINT Bip001_R_UpperArm
            {
              OFFSET -11.773 -0.0611516 0.00194365
              CHANNELS 3 Zrotation Xrotation Yrotation
              JOINT Bip001_R_Forearm
              {
                OFFSET -26.4514 0.0822335 -2.19736
                CHANNELS 3 Zrotation Xrotation Yrotation
                JOINT Bip001_R_Hand
                {
                  OFFSET -32.8678 0.156816 1.67144
                  CHANNELS 3 Zrotation Xrotation Yrotation
                  JOINT Bip001_R_Finger0
                  {
                    OFFSET -6.16272 -2.25224 6.01671
                    CHANNELS 3 Zrotation Xrotation Yrotation
                    End Site
                    {
                      OFFSET -4.30501 -1.46661 0.618135
                    }
                  }
                  JOINT Bip001_R_Finger1
                  {
                    OFFSET -11.2958 -0.718342 -0.201994
                    CHANNELS 3 Zrotation Xrotation Yrotation
                    End Site
                    {
                      OFFSET -6.31954 -0.405145 -0.0802477
                    }
                  }
                }
              }
            }
          }
          JOINT Bip001_Head
          {
            OFFSET 1.11782e-005 11.4912 2.09908
            CHANNELS 3 Zrotation Xrotation Yrotation
            End Site
            {
              OFFSET 2.95145e-005 21.2823 -2.83069e-005
            }
          }
        }
      }
    }
  }
}
MOTION
Frames:	7
Frame Time:	0.0333333
-1.91185 95.6801 -3.00376 0.329103 -0.350262 8.88783 0.0931679 0.292255 0.167502 -4.11746 1.04229 4.52848 -0.000309611 11.1851 -0.0545107 11.0382 -10.2371 -13.2254 -4.63664e-013 -4.13423e-007 2.37601e-007 -2.66648 -12.7951 -2.24186 -0.108033 33.9138 0.60874 4.74536 -23.9651 -8.07052 1.46603e-015 1.19271e-015 1.19271e-015 0.16596 0.593632 0.323234 0.159105 0.593694 0.322482 -1.34272 -4.7177 3.38563 -26.0001 11.7753 -15.2504 -43.3082 19.0885 5.83959 -2.10007 0.483617 -21.8416 4.79298 9.0564 -3.17333 5.29669e-031 9.54166e-015 -3.18055e-015 -1.59028e-015 1.27222e-014 -3.18055e-015 26.0232 7.98263 8.41904 48.8181 46.5681 -8.96554 -1.43674 -2.08774 24.6385 0.405286 -2.89836 3.0237 -3.18055e-015 6.36111e-015 7.95139e-016 -1.59028e-015 0 -0 0.7162 2.60248 2.8113 
-1.91227 95.6801 -3.00356 0.329721 -0.350162 8.88873 0.0928001 0.292255 0.16718 -4.11869 1.04213 4.52889 -0.000225893 11.1844 -0.054946 11.039 -10.2373 -13.2248 -4.65255e-013 -4.13423e-007 2.37601e-007 -2.66618 -12.7958 -2.24192 -0.107838 33.9141 0.608978 4.74278 -23.9652 -8.07546 9.93921e-017 7.9514e-016 3.97569e-016 0.165787 0.59409 0.323234 0.158355 0.594153 0.322 -1.34026 -4.7182 3.3851 -26.0032 11.7736 -15.2491 -43.31 19.0895 5.8408 -2.10022 0.483688 -21.8416 4.79241 9.05548 -3.17506 -1.59028e-015 -3.18055e-015 -3.18055e-015 1.59028e-015 0 -0 26.0209 7.98269 8.41812 48.8214 46.5667 -8.96561 -1.43787 -2.08778 24.636 0.405558 -2.89548 3.02284 1.59028e-015 -6.36111e-015 -1.59028e-015 0 0 -2.38542e-015 0.734948 2.64378 2.79673 
-1.9157 95.6795 -3.00214 0.328333 -0.350493 8.88628 0.0927319 0.292255 0.16739 -4.11778 1.04277 4.52828 -0.000147681 11.184 -0.0553512 11.0395 -10.2364 -13.2228 -4.64609e-013 -4.13423e-007 2.37601e-007 -2.65917 -12.7946 -2.24295 -0.107549 33.9088 0.609235 4.72404 -23.9635 -8.10888 -5.51738e-033 3.9757e-016 7.95137e-016 0.165748 0.594239 0.324333 0.158472 0.594296 0.322866 -1.3265 -4.71762 3.38746 -26.0175 11.7721 -15.2497 -43.3149 19.0842 5.83971 -2.10028 0.483718 -21.841 4.79139 9.05699 -3.17557 -9.54166e-015 -3.18055e-015 -0 -7.95139e-015 -3.18056e-015 -3.18055e-015 26.0266 7.9819 8.41794 48.802 46.5644 -8.99945 -1.43727 -2.08725 24.6675 0.405088 -2.89717 3.01743 -1.59028e-015 0 7.95139e-016 -1.59028e-015 0 7.95139e-016 0.751973 2.68401 2.78023 
-1.92049 95.6785 -3.00025 0.321961 -0.351183 8.87922 0.0929768 0.292255 0.168121 -4.1142 1.04418 4.52671 -7.54891e-005 11.184 -0.0557233 11.0396 -10.2345 -13.2201 -4.64484e-013 -4.13423e-007 2.37601e-007 -2.64339 -12.7897 -2.24483 -0.107178 33.8987 0.60951 4.68921 -23.9575 -8.15842 5.21809e-016 7.9514e-016 1.19271e-015 0.165679 0.594052 0.326252 0.161792 0.594097 0.325003 -1.30391 -4.71594 3.39254 -26.0411 11.7714 -15.2527 -43.3245 19.0726 5.83388 -2.10023 0.483725 -21.84 4.79015 9.06077 -3.17421 -1.59028e-015 -6.36111e-015 -6.36111e-015 0 0 -3.18055e-015 26.0481 7.98031 8.41865 48.7665 46.5688 -9.06071 -1.43496 -2.08628 24.7256 0.403973 -2.90863 3.00538 -4.41391e-032 -3.18055e-015 -7.95139e-016 -3.18055e-015 -6.36111e-015 7.95139e-016 0.765935 2.72099 2.76025 
-1.92668 95.6771 -2.99777 0.314301 -0.352163 8.86303 0.0935481 0.292255 0.169363 -4.10346 1.0471 4.52424 -9.83003e-006 11.1844 -0.0560595 11.0381 -10.2316 -13.2165 -4.64584e-013 -4.13423e-007 2.37601e-007 -2.62362 -12.7813 -2.24747 -0.106723 33.8833 0.609793 4.6443 -23.9487 -8.21949 1.2424e-016 7.9514e-016 -3.97569e-016 0.168726 0.593504 0.330491 0.165991 0.593527 0.329357 -1.2753 -4.71314 3.40399 -26.0701 11.7727 -15.2615 -43.3387 19.0528 5.82642 -2.10009 0.483729 -21.8387 4.78899 9.07261 -3.16889 3.18055e-015 9.54166e-015 -0 1.59028e-015 9.54167e-015 3.18055e-015 26.0796 7.97794 8.42038 48.7188 46.5838 -9.14513 -1.43082 -2.08493 24.8063 0.39872 -2.93939 2.98744 -1.59028e-015 0 -2.38542e-015 -1.59028e-015 0 -2.38542e-015 0.770605 2.75707 2.73483 
-1.93205 95.6761 -2.99519 0.307127 -0.354483 8.84456 0.0944592 0.292255 0.171104 -4.09582 1.05253 4.51719 4.87858e-005 11.1854 -0.0563568 11.039 -10.2272 -13.2043 -4.64658e-013 -4.13423e-007 2.37601e-007 -2.60824 -12.7727 -2.2508 -0.106281 33.8699 0.610132 4.61055 -23.94 -8.26005 8.69681e-016 1.19271e-015 7.95137e-016 0.173347 0.59257 0.338272 0.17231 0.592559 0.338316 -1.25147 -4.70926 3.41172 -26.097 11.7758 -15.2673 -43.3475 19.0377 5.81339 -2.10005 0.483369 -21.8332 4.78589 9.08589 -3.16387 -0 -3.18055e-015 -0 1.59028e-015 -9.54167e-015 -3.18055e-015 26.0947 7.97478 8.42474 48.6849 46.6213 -9.21744 -1.42415 -2.08374 24.8766 0.384647 -2.991 2.98138 2.64834e-031 6.36111e-015 -2.38542e-015 1.59028e-015 3.18056e-015 -3.18055e-015 0.772106 2.77543 2.72123 
-1.93679 95.6752 -2.99246 0.300988 -0.35924 8.82338 0.095716 0.292255 0.174766 -4.09162 1.05921 4.50564 9.98423e-005 11.187 -0.0566121 11.0436 -10.217 -13.1829 -4.6677e-013 -4.13423e-007 2.37601e-007 -2.59922 -12.7644 -2.25816 -0.105867 33.8594 0.610528 4.58625 -23.9323 -8.27868 7.20593e-016 -3.9757e-016 -3.97569e-016 0.180585 0.59009 0.349062 0.180535 0.590039 0.349081 -1.23134 -4.70292 3.41484 -26.1252 11.7741 -15.2713 -43.3522 19.0246 5.79722 -2.10027 0.48227 -21.8229 4.78148 9.10092 -3.16121 1.59028e-015 3.18055e-015 -0 3.18055e-015 3.18056e-015 -3.18055e-015 26.0957 7.97092 8.42876 48.6614 46.6794 -9.28198 -1.41817 -2.08266 24.9409 0.356681 -3.06291 2.97931 3.18055e-015 3.18055e-015 -7.95139e-016 1.59028e-015 0 -1.59028e-015 0.771872 2.77553 2.72211 
